<svg xmlns="http://www.w3.org/2000/svg" viewBox="0 0 768 768"><defs><style>.cls-1{fill:#fefefe;}.cls-2{fill:#212121;}.cls-3{fill:#494949;}.cls-4{fill:#d5d5d5;}.cls-5{fill:#787878;}.cls-6{fill:#aaa;}.cls-7{fill:#a7a7a7;}.cls-8{fill:#797979;}.cls-9{fill:#a6a6a6;}.cls-10{fill:#767676;}</style></defs><g id="Слой_2" data-name="Слой 2"><g id="Слой_1-2" data-name="Слой 1"><path class="cls-1" d="M34.09,768c-10.5,0-21,.06-31.49-.11-.84,0-1.79-1.47-2.45-2.43-.31-.45,0-1.29,0-2Q.1,384,0,4.59C0,.83.83,0,4.6,0Q384,.17,763.41,0c3.76,0,4.59.83,4.59,4.59q-.16,374.21-.1,748.4c-7.12-11-14.42-21.91-21.26-33.1a50.34,50.34,0,0,1-5.58-13.17c-3.57-13.3-7.78-26.27-17.39-36.59-5.89-6.32-12.1-12.34-18.43-18.22a119.09,119.09,0,0,0-11.37-8.83c-7.27-5.24-14.77-10.16-21.91-15.56s-13.9-11.39-23.45-12.48a53,53,0,0,1-14-3.16c-11.52-4.77-22.62-10.61-34.22-15.17a49.88,49.88,0,0,1-22.59-17.38,25.87,25.87,0,0,0-5.43-5.76c-13.65-9.81-27.49-19.35-41.1-29.22a61.41,61.41,0,0,1-11.8-10.52c-4.76-5.88-10.2-8.56-17.87-9.13-6-.44-12.64-2.37-17.45-5.8-8.34-5.95-15.63-13.41-23.05-20.56a27,27,0,0,1-8.66-20.11c0-5.81,0-11.75,1.17-17.4,4.39-21.5,9.27-42.91,13.92-64.36.95-4.38,3.42-7.14,7.87-8a20.4,20.4,0,0,0,15.88-13.12c6.29-15.92,12.75-31.85,17.65-48.22,3.91-13-1.23-23.31-12.85-30.57-3.94-2.46-5.82-5.63-4.25-10,2.33-6.56,5-13,7.6-19.46,1.3-3.23,2.9-6.34,4.05-9.62a190.26,190.26,0,0,0,10.53-61.19c.09-8.94,2.07-18.48-.32-26.72a385.41,385.41,0,0,0-19.6-52.76,59.61,59.61,0,0,0-31.52-30.72c-5.87-2.48-11.28-6.44-16.3-10.47-14.75-11.84-31.39-21-50.21-18.91-21.11,2.3-40.62-7.16-61.3-5.06a2.23,2.23,0,0,1-1-.24c-11.27-4.26-22.81-3.78-34.5-2.33-28.2,3.49-53,13.84-72.65,35-10.64,11.44-19.43,23.73-24.82,38.75-6.17,17.21-14.72,33.54-17.17,52-1.18,8.89-3.53,17.62-4.91,26.5a60.76,60.76,0,0,0-.72,14.8c1.45,15.12,8.61,27.79,18,39.37,5.87,7.23,12,14.26,17.53,21.75,5.32,7.24,4.64,9.6-2.61,14.61-10.08,7-15.45,19-11.43,30.53,5.95,17.1,13.08,33.82,20.3,50.45a25.36,25.36,0,0,0,9,10.32c6.42,4.25,9.44,9.73,10.51,17.16a119.34,119.34,0,0,0,15.44,44.53c2.94,5,4.07,11.18,5.3,17,1.1,5.17,1.25,10.56,1.74,15.85,1.28,13.89,4,27.86.36,41.64a24.48,24.48,0,0,1-7.87,12c-7.36,5.92-15.54,10.85-23.55,15.92-3.06,1.93-6.44,3.82-9.92,4.5-13.5,2.63-24,9.81-33.54,19.44a119.67,119.67,0,0,1-21.67,17.38c-10.17,6.29-21.59,10.54-31.75,16.84-15.8,9.79-32.47,18.94-46.08,31.32C69,654.53,56.31,677.88,49,703.35,42.91,724.57,39,746.42,34.09,768Z"/><path class="cls-2" d="M754.91,768H50.09c3.4-16.28,6.27-32.69,10.33-48.8,7-27.6,19.38-52.62,39.9-72.66,15.41-15,34.74-24.63,53.91-33.91,18.61-9,35.92-19.35,50-34.89,3.88-4.27,10-7.35,15.72-8.92a77.75,77.75,0,0,0,27.14-13.29c3.42-2.63,6.89-5.4,10.76-7.22,16.69-7.91,22.5-21.9,22.08-39.18-.31-13-.65-26-2.29-38.83-1.33-10.44-2.73-21.59-7.42-30.73-7.56-14.77-13.29-29.71-15.45-46.09-1.29-9.79-5.39-17.69-14.79-22.27a12.07,12.07,0,0,1-5.59-5.43c-6.46-15.34-12.89-30.7-18.58-46.33-2.57-7.07.93-12.34,7.95-14.8,12-4.19,16.26-10.63,10.58-21.94-8.46-16.84-19.3-32.48-28.88-48.77-2.9-4.93-6.59-10.17-7.19-15.57-2.64-24,2.28-46.94,11.22-69.13,3.24-8,7.31-15.75,10.15-23.9C227,104.2,242.38,89.75,260,77.86c19.17-12.9,41.42-10.37,63-9.21,20.57,1.1,41.15,4,61.67,3.52,19.74-.46,36.61,4.82,52.13,16.31a140.9,140.9,0,0,0,14.91,9.93c8.72,4.88,16.6,10.37,21.09,19.77,3.34,7,6.87,14,10.72,20.72,5.72,10,11.65,20.06,12,31.93.3,11.43-.22,22.88-.7,34.3-.12,2.9-1.27,5.82-2.26,8.61-4,11.27-9.27,22.24-11.9,33.81-3.33,14.68-4.66,29.82-6.66,44.78-1.51,11.29.9,14.92,11.62,18.47,6.74,2.23,10,6.78,7.83,13.36-4.52,13.91-9.52,27.7-15,41.26-1,2.54-5,4.88-8,5.43-10.33,1.89-14.57,4.71-16.8,15C448,412.17,442,438.47,437.62,465c-2.16,13-3.13,27,7.17,38,8.19,8.71,16.7,17.15,25.55,25.17,8.55,7.72,18.27,13.38,30.47,13.12,1.63,0,3.48,1.12,4.9,2.18,10.5,7.82,20.88,15.83,31.38,23.66,12.86,9.58,27.59,16.88,36.25,31.49,2.07,3.51,6.06,6.32,9.77,8.35a207.75,207.75,0,0,0,24.27,11.63c10.65,4.13,21.47,8.07,32.55,10.69,8.49,2,16.05,4.69,22.68,10.58,5.93,5.29,12.81,9.51,19,14.53,10,8.13,21.18,15.39,29.29,25.16,6.73,8.12,10.78,19,14.13,29.26,3,9.16,6.27,17.71,12.34,25.3C745.43,744.18,751.88,755.23,754.91,768Z"/><path class="cls-3" d="M754.91,768c-3-12.76-9.48-23.81-17.54-33.9C731.3,726.5,728,718,725,708.79c-3.35-10.27-7.4-21.14-14.13-29.26-8.11-9.77-19.27-17-29.29-25.16-6.19-5-13.07-9.24-19-14.53-6.63-5.89-14.19-8.56-22.68-10.58-11.08-2.62-21.9-6.56-32.55-10.69a207.75,207.75,0,0,1-24.27-11.63c-3.71-2-7.7-4.84-9.77-8.35C564.68,584,550,576.68,537.09,567.1c-10.5-7.83-20.88-15.84-31.38-23.66-1.42-1.06-3.27-2.21-4.9-2.18-12.2.26-21.92-5.4-30.47-13.12-8.85-8-17.36-16.46-25.55-25.17-10.3-11-9.33-25-7.17-38,4.42-26.55,10.36-52.85,16.07-79.17,2.23-10.29,6.47-13.11,16.8-15,3-.55,7-2.89,8-5.43,5.48-13.56,10.48-27.35,15-41.26,2.14-6.58-1.09-11.13-7.83-13.36-10.72-3.55-13.13-7.18-11.62-18.47,2-15,3.33-30.1,6.66-44.78,2.63-11.57,7.9-22.54,11.9-33.81,1-2.79,2.14-5.71,2.26-8.61.48-11.42,1-22.87.7-34.3-.31-11.87-6.24-21.9-12-31.93-3.85-6.75-7.38-13.71-10.72-20.72-4.49-9.4-12.37-14.89-21.09-19.77a140.9,140.9,0,0,1-14.91-9.93C421.35,77,404.48,71.71,384.74,72.17c-20.52.47-41.1-2.42-61.67-3.52-21.61-1.16-43.86-3.69-63,9.21-17.66,11.89-33,26.34-40.38,47.47-2.84,8.15-6.91,15.87-10.15,23.9-8.94,22.19-13.86,45.18-11.22,69.13.6,5.4,4.29,10.64,7.19,15.57,9.58,16.29,20.42,31.93,28.88,48.77,5.68,11.31,1.41,17.75-10.58,21.94-7,2.46-10.52,7.73-7.95,14.8,5.69,15.63,12.12,31,18.58,46.33A12.07,12.07,0,0,0,240,371.2c9.4,4.58,13.5,12.48,14.79,22.27,2.16,16.38,7.89,31.32,15.45,46.09,4.69,9.14,6.09,20.29,7.42,30.73,1.64,12.84,2,25.87,2.29,38.83.42,17.28-5.39,31.27-22.08,39.18-3.87,1.82-7.34,4.59-10.76,7.22A77.75,77.75,0,0,1,220,568.81c-5.68,1.57-11.84,4.65-15.72,8.92-14.1,15.54-31.41,25.88-50,34.89-19.17,9.28-38.5,18.87-53.91,33.91-20.52,20-32.94,45.06-39.9,72.66-4.06,16.11-6.93,32.52-10.33,48.8h-5c4.74-20.41,8.59-41.09,14.45-61.17,7.14-24.45,19.35-46.72,38.51-63.77,11.3-10.06,24.53-18.32,37.83-25.68,24.43-13.5,50.38-24.36,69.18-46.39,3.05-3.57,8.8-5.5,13.67-6.68a66.27,66.27,0,0,0,25.81-12.53,104.54,104.54,0,0,1,12.94-8.45c7.31-4.18,14.08-9.18,15.65-17.8a148.15,148.15,0,0,0,2.5-27.71,218.35,218.35,0,0,0-2.78-30.27C271.61,459.21,271,450.1,267,443a145.44,145.44,0,0,1-17.13-50.77,21.73,21.73,0,0,0-11-16.38c-3.42-2.07-7.15-5.07-8.7-8.55-6.62-14.9-13-29.95-18.42-45.31-3.54-10,.32-19.13,9-21.39,10.46-2.71,13.22-9.72,8.18-19.67-6.19-12.2-14.59-23.28-22-34.84a31.69,31.69,0,0,0-2.67-4.19c-10.47-11.94-14.22-26.12-12-41.39,3.21-21.85,6.39-43.74,17.15-63.76,6.73-12.52,10.14-26.51,19.51-38,24-29.42,54.89-39.88,91.8-36.48,25.29,2.33,50.67,3.8,76,5.81a83.8,83.8,0,0,1,14.69,2.39c21,5.53,35.84,21.94,54.67,31.35a5,5,0,0,1,1.79,1.73c5.9,9,12.36,17.63,17.49,27,8.28,15.17,17,30.4,15.54,48.76-.4,5.13-1.56,10.44-.72,15.39,1.61,9.49-.24,18.21-3.64,26.84-2.06,5.26-5.13,10.26-6.37,15.69-4.12,18.11-7.76,36.33-11.3,54.57-1.58,8.17.74,11.5,8.66,14.26,8.69,3,13.16,9.49,10.42,18.15-4.85,15.35-10.54,30.46-16.66,45.35-1.21,2.93-5.71,5.55-9.14,6.33-10,2.29-13.14,4.11-14.81,14.08-4.64,27.54-15.32,53.84-16.11,82.18-.26,9.63-.17,19,6.29,26.48a293.73,293.73,0,0,0,23.94,24.57c8.56,7.82,18,14.13,30.75,13.18,2.72-.21,5.92,3.08,8.54,5.2,4.24,3.41,7.91,7.57,12.33,10.71,9.35,6.65,19.45,12.31,28.44,19.4,8.41,6.62,15.79,14.56,23.61,21.93,3.27,3.08,6,7.31,9.86,9.07,16,7.3,31.93,15.56,48.78,20.18,14,3.84,26.4,8.35,37.48,18.05,12.55,11,28,18.18,39.49,31,8.65,9.63,15.12,20.1,17.91,32.33A76.14,76.14,0,0,0,743,734.06c7.67,10.06,14.47,20.81,15.87,33.93Z"/><path class="cls-4" d="M34.09,768C39,746.42,42.91,724.57,49,703.35c7.31-25.47,20-48.82,39.63-66.64,13.61-12.38,30.28-21.53,46.08-31.32,10.16-6.3,21.58-10.55,31.75-16.84a119.67,119.67,0,0,0,21.67-17.38c9.54-9.63,20-16.81,33.54-19.44,3.48-.68,6.86-2.57,9.92-4.5,8-5.07,16.19-10,23.55-15.92a24.48,24.48,0,0,0,7.87-12c3.66-13.78.92-27.75-.36-41.64-.49-5.29-.64-10.68-1.74-15.85-1.23-5.8-2.36-12-5.3-17a119.34,119.34,0,0,1-15.44-44.53c-1.07-7.43-4.09-12.91-10.51-17.16a25.36,25.36,0,0,1-9-10.32c-7.22-16.63-14.35-33.35-20.3-50.45-4-11.53,1.35-23.57,11.43-30.53,7.25-5,7.93-7.37,2.61-14.61-5.51-7.49-11.66-14.52-17.53-21.75-9.39-11.58-16.55-24.25-18-39.37a60.76,60.76,0,0,1,.72-14.8c1.38-8.88,3.73-17.61,4.91-26.5,2.45-18.48,11-34.81,17.17-52,5.39-15,14.18-27.31,24.82-38.75,19.69-21.16,44.45-31.51,72.65-35,11.69-1.45,23.23-1.93,34.5,2.33a2.23,2.23,0,0,0,1,.24c20.68-2.1,40.19,7.36,61.3,5.06,18.82-2.05,35.46,7.07,50.21,18.91,5,4,10.43,8,16.3,10.47a59.61,59.61,0,0,1,31.52,30.72,385.41,385.41,0,0,1,19.6,52.76c2.39,8.24.41,17.78.32,26.72a190.26,190.26,0,0,1-10.53,61.19c-1.15,3.28-2.75,6.39-4.05,9.62-2.59,6.47-5.27,12.9-7.6,19.46-1.57,4.4.31,7.57,4.25,10,11.62,7.26,16.76,17.53,12.85,30.57-4.9,16.37-11.36,32.3-17.65,48.22a20.4,20.4,0,0,1-15.88,13.12c-4.45.83-6.92,3.59-7.87,8-4.65,21.45-9.53,42.86-13.92,64.36-1.15,5.65-1.12,11.59-1.17,17.4A27,27,0,0,0,461,498.34c7.42,7.15,14.71,14.61,23.05,20.56,4.81,3.43,11.47,5.36,17.45,5.8,7.67.57,13.11,3.25,17.87,9.13a61.41,61.41,0,0,0,11.8,10.52c13.61,9.87,27.45,19.41,41.1,29.22a25.87,25.87,0,0,1,5.43,5.76,49.88,49.88,0,0,0,22.59,17.38c11.6,4.56,22.7,10.4,34.22,15.17a53,53,0,0,0,14,3.16c9.55,1.09,16.27,7.05,23.45,12.48s14.64,10.32,21.91,15.56a119.09,119.09,0,0,1,11.37,8.83c6.33,5.88,12.54,11.9,18.43,18.22,9.61,10.32,13.82,23.29,17.39,36.59a50.34,50.34,0,0,0,5.58,13.17c6.84,11.19,14.14,22.09,21.26,33.1,0,4.34.09,8.67-.08,13,0,.69-1.25,1.33-1.91,2-2.41-16.26-11.73-29.07-20.51-42.28-3.86-5.82-7.36-12.43-8.88-19.16-6.1-27-24.14-44.49-45.29-59.83-7-5.06-13.91-10.24-21.16-14.88-6.78-4.34-13.63-8.86-21-11.81-9.36-3.74-19.67-5.14-28.95-9-17.33-7.27-36.17-12.55-47-30.21a17.75,17.75,0,0,0-5-4.85c-13.44-9.54-27-18.84-40.4-28.5a66.1,66.1,0,0,1-12.16-10.89c-3.95-4.74-8.54-7.78-14.52-7.36-8.46.6-15.26-2.48-21.45-7.73-5.2-4.41-10.89-8.37-15.5-13.33-7.72-8.3-17-16-16.21-29.15-.63-30.16,10.58-58.15,16.33-87.13.6-3,4.94-6.84,8.08-7.44,8-1.53,13.1-5.78,15.87-12.88,5.62-14.41,11.37-28.81,16.08-43.53,3.75-11.75-1-22.16-10.85-27.24-7.66-4-8.86-5.94-6.41-14.31,4.21-14.38,7.9-29,13.63-42.83,9.19-22.15,9.57-45.49,8.08-68.24-1.54-23.68-11.76-45.65-25.08-65.53a54.71,54.71,0,0,0-22.4-19.35,96.25,96.25,0,0,1-17.56-11.28c-12.71-9.85-27-17.27-42.76-17.71C374.28,60.76,348,58,321.73,54.22c-17.08-2.44-33.8.44-50,6.12-30.17,10.57-51.06,31-63.58,60.18-3.41,8-6.81,15.94-9.74,24.08a244,244,0,0,0-8.07,25.63c-2.25,9.37-3.26,19-5.12,28.5-2,10.09-2.14,20.29,2.6,29.35,5.74,11,12.85,21.24,19.57,31.68,4.67,7.26,10.07,14.06,14.38,21.51,2.67,4.6,1.86,9.19-3.58,12.27-13.44,7.6-17.61,19.45-11.91,33.87C211.64,341,217,354.71,223.09,368A30.17,30.17,0,0,0,233,380c6.32,4.28,10,9.31,10.94,16.84a120.09,120.09,0,0,0,16.29,47.38,29.53,29.53,0,0,1,4.26,11.66c1.79,18,3.58,36.09,4.24,54.19.37,9.89-1.79,19.6-11.59,25.56-7.24,4.4-14,9.54-21.26,14-4.21,2.6-8.67,5.55-13.38,6.45-13.31,2.53-23.28,9.8-32.5,19.21a97.23,97.23,0,0,1-19.72,15.86c-14.92,8.75-30.39,16.56-45.74,24.56-36.75,19.13-59.11,50.18-71.28,88.66-6.56,20.73-10.23,42.37-15.2,63.6Z"/><path class="cls-5" d="M758.91,768c-1.4-13.12-8.2-23.87-15.87-33.93a76.14,76.14,0,0,1-14.32-29.78c-2.79-12.23-9.26-22.7-17.91-32.33-11.49-12.81-26.94-20-39.49-31-11.08-9.7-23.51-14.21-37.48-18.05C617,618.29,601.09,610,585.06,602.73c-3.86-1.76-6.59-6-9.86-9.07-7.82-7.37-15.2-15.31-23.61-21.93-9-7.09-19.09-12.75-28.44-19.4-4.42-3.14-8.09-7.3-12.33-10.71-2.62-2.12-5.82-5.41-8.54-5.2-12.76,1-22.19-5.36-30.75-13.18a293.73,293.73,0,0,1-23.94-24.57c-6.46-7.47-6.55-16.85-6.29-26.48.79-28.34,11.47-54.64,16.11-82.18,1.67-10,4.83-11.79,14.81-14.08,3.43-.78,7.93-3.4,9.14-6.33,6.12-14.89,11.81-30,16.66-45.35,2.74-8.66-1.73-15.12-10.42-18.15-7.92-2.76-10.24-6.09-8.66-14.26,3.54-18.24,7.18-36.46,11.3-54.57,1.24-5.43,4.31-10.43,6.37-15.69,3.4-8.63,5.25-17.35,3.64-26.84-.84-5,.32-10.26.72-15.39,1.42-18.36-7.26-33.59-15.54-48.76-5.13-9.39-11.59-18.06-17.49-27a5,5,0,0,0-1.79-1.73C447.32,92.43,432.49,76,411.48,70.49a83.8,83.8,0,0,0-14.69-2.39c-25.32-2-50.7-3.48-76-5.81C283.89,58.89,253,69.35,229,98.77c-9.37,11.48-12.78,25.47-19.51,38-10.76,20-13.94,41.91-17.15,63.76-2.25,15.27,1.5,29.45,12,41.39A31.69,31.69,0,0,1,207,246.1l-.94,1c-10.59-10.88-16.78-23.89-15.78-39.09.85-12.89,2.29-26,5.75-38.4,4.22-15.13,11.65-29.35,16.2-44.41,6.14-20.38,20.66-34,35.9-46.84,21.34-17.92,47.36-19.62,73.76-17.88,24.83,1.62,49.62,3.92,74.44,5.58,14.91,1,28.05,6.46,40.38,14.39,7.54,4.84,15.15,9.59,22.4,14.84,5.73,4.15,12.17,8.14,16.13,13.73,6.67,9.44,12.13,19.84,17.19,30.28,7.62,15.71,13.3,31.91,9.86,50.05-.69,3.64,1.58,7.86,2.49,11.81-2,10.23-2.14,21.25-6.25,30.54C489.94,251,488,271.85,482.37,291.81c-1.4,5,1,8.34,5.39,10.53,14.19,7.15,17.06,13.91,11.95,28.93Q494,348,487.84,364.65c-1.21,3.24-2.62,6.76-5,9.13-2.64,2.67-6.21,5.21-9.78,6-8.51,1.89-10.92,3.65-12.83,12.22-2.82,12.68-5,25.54-8.7,38-4.93,16.65-7.43,33.53-6.34,50.73.38,6.08,2.47,13.19,6.29,17.69,8,9.44,17.5,17.67,26.74,26,6.78,6.11,15,8.74,24.28,8.87,3.28.05,6.84,2.71,9.69,4.92,4.82,3.74,8.88,8.48,13.8,12.06,9.41,6.84,19.56,12.71,28.73,19.84,7.8,6.07,14.61,13.39,21.93,20.08,3.77,3.45,7.23,7.66,11.65,9.93,19.39,9.94,38.89,19.77,60.83,23.19,3.18.5,6.76,1.71,9.1,3.78,16.38,14.59,36.21,24.49,52,40.13,12.48,12.35,19.46,26.51,23.72,42.92a46.85,46.85,0,0,0,6.9,15.2c9.43,13.2,18.84,26.29,22,42.67Z"/><path class="cls-6" d="M38.09,768c5-21.23,8.64-42.87,15.2-63.6,12.17-38.48,34.53-69.53,71.28-88.66,15.35-8,30.82-15.81,45.74-24.56A97.23,97.23,0,0,0,190,575.31c9.22-9.41,19.19-16.68,32.5-19.21,4.71-.9,9.17-3.85,13.38-6.45,7.22-4.44,14-9.58,21.26-14,9.8-6,12-15.67,11.59-25.56-.66-18.1-2.45-36.16-4.24-54.19a29.53,29.53,0,0,0-4.26-11.66A120.09,120.09,0,0,1,244,396.88c-.91-7.53-4.62-12.56-10.94-16.84a30.17,30.17,0,0,1-9.94-12c-6.11-13.31-11.45-27-16.84-40.61-5.7-14.42-1.53-26.27,11.91-33.87,5.44-3.08,6.25-7.67,3.58-12.27-4.31-7.45-9.71-14.25-14.38-21.51-6.72-10.44-13.83-20.71-19.57-31.68-4.74-9.06-4.58-19.26-2.6-29.35,1.86-9.47,2.87-19.13,5.12-28.5a244,244,0,0,1,8.07-25.63c2.93-8.14,6.33-16.13,9.74-24.08,12.52-29.2,33.41-49.61,63.58-60.18,16.23-5.68,32.95-8.56,50-6.12C348,58,374.28,60.76,400.89,61.51c15.75.44,30.05,7.86,42.76,17.71A96.25,96.25,0,0,0,461.21,90.5a54.71,54.71,0,0,1,22.4,19.35c13.32,19.88,23.54,41.85,25.08,65.53,1.49,22.75,1.11,46.09-8.08,68.24-5.73,13.79-9.42,28.45-13.63,42.83-2.45,8.37-1.25,10.35,6.41,14.31,9.84,5.08,14.6,15.49,10.85,27.24-4.71,14.72-10.46,29.12-16.08,43.53-2.77,7.1-7.89,11.35-15.87,12.88-3.14.6-7.48,4.44-8.08,7.44-5.75,29-17,57-16.33,87.13-.19-6.29-1.55-12.82-.38-18.85,4.49-23.18,9.75-46.22,14.83-69.29,1.11-5,4.35-8.2,9.64-8.78,6.77-.74,11.69-4.27,14.13-10.43,5.76-14.53,11.32-29.14,16.56-43.86,3.58-10.06-1.07-23.34-12.75-26.72-5.05-1.45-6.7-5.79-5.43-10.85,2.73-10.82,5.41-21.66,8.47-32.39,4-13.89,9.4-27.46,12.12-41.57,2.24-11.6,1.93-23.79,1.8-35.71a83.86,83.86,0,0,0-3.17-22.05,186.7,186.7,0,0,0-10.33-27,177.82,177.82,0,0,0-12.66-22C470.17,93.29,450.49,89.32,437,77.07c-11.77-8-24.67-13-38.92-13.95-21.52-1.49-43.19-1.75-64.55-4.47-12.8-1.63-25.27-2.74-38.15-1.72-35.26,2.79-60.16,22.14-78.47,50.34-8,12.37-12.63,27.09-18,41.07-3.41,8.95-5.48,18.43-7.77,27.76-1.26,5.16-1.24,10.65-2.67,15.74-5.82,20.65-.42,38.79,11.79,55.51,5.39,7.39,11.18,14.49,16.37,22a74,74,0,0,1,7.83,14.35c1.67,4.18.7,8.64-4,10.5-15,5.9-18.12,21.16-11.37,36.09,5.07,11.22,8.89,23,14.16,34.12,2.54,5.37,6.29,11,11,14.33,7.18,5.13,10.32,11.4,11.9,19.73,1.89,9.91,3.82,20.19,8.08,29.2,7.09,15,14.26,29.62,14.44,46.71.14,14.26,1.29,28.51,1.11,42.75-.1,8.31-3.92,15.23-11.53,19.84s-14.52,10-22.13,14.46a68,68,0,0,1-16.82,7.25,49.37,49.37,0,0,0-21.53,11.82c-9.43,8.56-19.18,17-29.82,23.91-11.26,7.3-23.68,12.85-35.7,19-27.4,13.94-49.52,33.27-64.31,60.71C52.09,703.51,45.74,735.62,40.09,768Z"/><path class="cls-7" d="M437,77.07c13.5,12.25,33.18,16.22,43.72,32.33a177.82,177.82,0,0,1,12.66,22,186.7,186.7,0,0,1,10.33,27,83.86,83.86,0,0,1,3.17,22.05c.13,11.92.44,24.11-1.8,35.71-2.72,14.11-8.15,27.68-12.12,41.57-3.06,10.73-5.74,21.57-8.47,32.39-1.27,5.06.38,9.4,5.43,10.85,11.68,3.38,16.33,16.66,12.75,26.72-5.24,14.72-10.8,29.33-16.56,43.86-2.44,6.16-7.36,9.69-14.13,10.43-5.29.58-8.53,3.75-9.64,8.78C457.25,413.91,452,437,447.5,460.13c-1.17,6,.19,12.56.38,18.85-.76,13.13,8.49,20.85,16.21,29.15,4.61,5,10.3,8.92,15.5,13.33,6.19,5.25,13,8.33,21.45,7.73,6-.42,10.57,2.62,14.52,7.36a66.1,66.1,0,0,0,12.16,10.89c13.35,9.66,27,19,40.4,28.5a17.75,17.75,0,0,1,5,4.85c10.8,17.66,29.64,22.94,47,30.21,9.28,3.89,19.59,5.29,28.95,9,7.41,3,14.26,7.47,21,11.81,7.25,4.64,14.18,9.82,21.16,14.88,21.15,15.34,39.19,32.87,45.29,59.83,1.52,6.73,5,13.34,8.88,19.16,8.78,13.21,18.1,26,20.51,42.28h-3c-3.18-16.38-12.59-29.47-22-42.67a46.85,46.85,0,0,1-6.9-15.2c-4.26-16.41-11.24-30.57-23.72-42.92-15.79-15.64-35.62-25.54-52-40.13-2.34-2.07-5.92-3.28-9.1-3.78-21.94-3.42-41.44-13.25-60.83-23.19-4.42-2.27-7.88-6.48-11.65-9.93-7.32-6.69-14.13-14-21.93-20.08-9.17-7.13-19.32-13-28.73-19.84-4.92-3.58-9-8.32-13.8-12.06-2.85-2.21-6.41-4.87-9.69-4.92-9.32-.13-17.5-2.76-24.28-8.87-9.24-8.34-18.73-16.57-26.74-26-3.82-4.5-5.91-11.61-6.29-17.69-1.09-17.2,1.41-34.08,6.34-50.73,3.67-12.43,5.88-25.29,8.7-38,1.91-8.57,4.32-10.33,12.83-12.22,3.57-.79,7.14-3.33,9.78-6,2.34-2.37,3.75-5.89,5-9.13Q494,348,499.71,331.27c5.11-15,2.24-21.78-11.95-28.93-4.36-2.19-6.79-5.56-5.39-10.53,5.65-20,7.57-40.8,16.14-60.15,4.11-9.29,4.29-20.31,6.25-30.54,0-5.45.23-10.91,0-16.35-.29-7.27.5-15-1.67-21.68a326.26,326.26,0,0,0-15.71-38.75c-6.8-14.4-16.68-26-31.84-32.94-7.2-3.31-13.1-9.45-19.59-14.31Z"/><path class="cls-8" d="M436,77.09c6.49,4.86,12.39,11,19.59,14.31,15.16,6.95,25,18.54,31.84,32.94a326.26,326.26,0,0,1,15.71,38.75c2.17,6.71,1.38,14.41,1.67,21.68.21,5.44,0,10.9,0,16.35-.91-4-3.18-8.17-2.49-11.81,3.44-18.14-2.24-34.34-9.86-50.05-5.06-10.44-10.52-20.84-17.19-30.28-4-5.59-10.4-9.58-16.13-13.73-7.25-5.25-14.86-10-22.4-14.84C424.36,72.48,411.22,67,396.31,66c-24.82-1.66-49.61-4-74.44-5.58-26.4-1.74-52.42,0-73.76,17.88-15.24,12.8-29.76,26.46-35.9,46.84-4.55,15.06-12,29.28-16.2,44.41-3.46,12.39-4.9,25.51-5.75,38.4-1,15.2,5.19,28.21,15.78,39.09,4.31,6.52,8.79,12.94,12.88,19.59,3.38,5.51,6.94,11.05,9.27,17,2.78,7.14.35,11.42-6.56,14.35-11,4.68-15.53,14.17-11.28,25.56,5.3,14.19,10.91,28.28,17,42.13a24.5,24.5,0,0,0,8.77,10.45c8,5,11.84,11.69,12.93,20.72,1.9,15.93,7.25,30.69,15.18,44.64,2.35,4.14,4.56,8.82,5.06,13.45,1.95,18,3.82,36.06,4.49,54.14.57,15.38-5.16,27.94-20.48,34.55-3.75,1.61-6.73,4.94-10.39,6.84-8,4.19-16.29,8-24.45,11.9-4.9,2.37-10.41,4-14.56,7.26-7.38,5.9-13.15,14.07-21,19.07-15,9.53-30.88,17.65-46.55,26.08-16.2,8.72-32.39,17.79-44.71,31.51-15.92,17.74-27.94,38.3-34.33,61.43C51.84,727.63,47.78,747.9,43.09,768h-1c.68-4.43,1.24-8.88,2-13.29,5.08-27.59,11.25-54.89,25.43-79.54,8-13.85,16.56-27.26,29.13-37.72,16.56-13.79,35.43-23.62,54.59-33,17.05-8.33,32.6-18.41,45.72-32.45,4.62-4.95,11.78-7.7,18.06-10.91,8.05-4.12,16.49-7.48,24.56-11.58,4.12-2.1,7.55-5.59,11.72-7.56,13.38-6.34,19.12-17.09,18.64-31.38-.47-14-.77-28-2.4-41.82-1.07-9.11-2.75-18.82-7-26.74A140.48,140.48,0,0,1,247,394.4c-1-6.89-4.61-11.51-10.1-15.81-4.76-3.72-8.42-9.11-11.76-14.28-2.4-3.7-3.47-8.26-5.12-12.44-4.09-10.37-8.75-20.56-12.09-31.16-3-9.54,2.18-19.49,10.72-23.31s10.15-7.15,7.12-16.11a33.22,33.22,0,0,0-4.27-8.42c-7-9.91-14.31-19.64-21.42-29.48-7.5-10.39-13.11-22-11.78-34.8,2.61-25.13,6-50.17,17.94-73.22,6.7-12.9,10.05-27.28,20-38.83C247.25,72,273,57.28,305.63,58.35c22.17.73,44.24,4.17,66.38,6.16,5.77.52,11.62.14,17.43.17,4.14,0,8.58-.93,12.35.25C413.32,68.54,424.6,73,436,77.09Z"/><path class="cls-9" d="M436,77.09C424.6,73,413.32,68.54,401.79,64.93c-3.77-1.18-8.21-.23-12.35-.25-5.81,0-11.66.35-17.43-.17-22.14-2-44.21-5.43-66.38-6.16C273,57.28,247.25,72,226.19,96.54c-9.92,11.55-13.27,25.93-20,38.83-12,23-15.33,48.09-17.94,73.22-1.33,12.83,4.28,24.41,11.78,34.8,7.11,9.84,14.39,19.57,21.42,29.48a33.22,33.22,0,0,1,4.27,8.42c3,9,1.45,12.27-7.12,16.11s-13.72,13.77-10.72,23.31c3.34,10.6,8,20.79,12.09,31.16,1.65,4.18,2.72,8.74,5.12,12.44,3.34,5.17,7,10.56,11.76,14.28,5.49,4.3,9.14,8.92,10.1,15.81A140.48,140.48,0,0,0,262.59,442c4.25,7.92,5.93,17.63,7,26.74,1.63,13.85,1.93,27.86,2.4,41.82.48,14.29-5.26,25-18.64,31.38-4.17,2-7.6,5.46-11.72,7.56-8.07,4.1-16.51,7.46-24.56,11.58-6.28,3.21-13.44,6-18.06,10.91-13.12,14-28.67,24.12-45.72,32.45-19.16,9.35-38,19.18-54.59,33-12.57,10.46-21.16,23.87-29.13,37.72-14.18,24.65-20.35,52-25.43,79.54-.81,4.41-1.37,8.86-2,13.29h-2c5.65-32.37,12-64.48,27.85-93.89,14.79-27.44,36.91-46.77,64.31-60.71,12-6.11,24.44-11.66,35.7-19,10.64-6.9,20.39-15.35,29.82-23.91A49.37,49.37,0,0,1,219.3,558.7a68,68,0,0,0,16.82-7.25c7.61-4.42,14.59-9.91,22.13-14.46s11.43-11.53,11.53-19.84c.18-14.24-1-28.49-1.11-42.75-.18-17.09-7.35-31.71-14.44-46.71-4.26-9-6.19-19.29-8.08-29.2-1.58-8.33-4.72-14.6-11.9-19.73-4.71-3.37-8.46-9-11-14.33-5.27-11.11-9.09-22.9-14.16-34.12-6.75-14.93-3.64-30.19,11.37-36.09,4.73-1.86,5.7-6.32,4-10.5a74,74,0,0,0-7.83-14.35c-5.19-7.53-11-14.63-16.37-22-12.21-16.72-17.61-34.86-11.79-55.51,1.43-5.09,1.41-10.58,2.67-15.74,2.29-9.33,4.36-18.81,7.77-27.76,5.33-14,9.93-28.7,18-41.07,18.31-28.2,43.21-47.55,78.47-50.34,12.88-1,25.35.09,38.15,1.72,21.36,2.72,43,3,64.55,4.47,14.25,1,27.15,6,38.92,13.95Z"/><path class="cls-10" d="M43.09,768c4.69-20.09,8.75-40.36,14.23-60.24,6.39-23.13,18.41-43.69,34.33-61.43,12.32-13.72,28.51-22.79,44.71-31.51,15.67-8.43,31.57-16.55,46.55-26.08,7.86-5,13.63-13.17,21-19.07,4.15-3.31,9.66-4.89,14.56-7.26,8.16-3.94,16.41-7.71,24.45-11.9,3.66-1.9,6.64-5.23,10.39-6.84,15.32-6.61,21.05-19.17,20.48-34.55C273.13,491,271.26,473,269.31,455c-.5-4.63-2.71-9.31-5.06-13.45-7.93-13.95-13.28-28.71-15.18-44.64-1.09-9-5-15.76-12.93-20.72a24.5,24.5,0,0,1-8.77-10.45c-6.11-13.85-11.72-27.94-17-42.13-4.25-11.39.23-20.88,11.28-25.56,6.91-2.93,9.34-7.21,6.56-14.35-2.33-6-5.89-11.51-9.27-17-4.09-6.65-8.57-13.07-12.88-19.59l.94-1c7.45,11.56,15.85,22.64,22,34.84,5,9.95,2.28,17-8.18,19.67-8.72,2.26-12.58,11.4-9,21.39,5.43,15.36,11.8,30.41,18.42,45.31,1.55,3.48,5.28,6.48,8.7,8.55a21.73,21.73,0,0,1,11,16.38A145.44,145.44,0,0,0,267,443c3.93,7.09,4.58,16.2,5.82,24.53a218.35,218.35,0,0,1,2.78,30.27,148.15,148.15,0,0,1-2.5,27.71c-1.57,8.62-8.34,13.62-15.65,17.8a104.54,104.54,0,0,0-12.94,8.45,66.27,66.27,0,0,1-25.81,12.53c-4.87,1.18-10.62,3.11-13.67,6.68-18.8,22-44.75,32.89-69.18,46.39-13.3,7.36-26.53,15.62-37.83,25.68-19.16,17.05-31.37,39.32-38.51,63.77C53.68,726.9,49.83,747.58,45.09,768Z"/></g></g></svg>