<svg xmlns="http://www.w3.org/2000/svg" viewBox="0 0 768 768"><defs><style>.cls-1{fill:#171717;}.cls-2{fill:#b0b0b0;}.cls-3{fill:#7f7f7f;}.cls-4{fill:#1e1e1e;}.cls-5{fill:#282828;}.cls-6{fill:#333;}.cls-7{fill:#8b8b8b;}.cls-8{fill:#989898;}.cls-9{fill:#909090;}.cls-10{fill:#7b7b7b;}.cls-11{fill:#8c8c8c;}.cls-12{fill:#212121;}.cls-13{fill:#6b6b6b;}.cls-14{fill:#3c3c3c;}.cls-15{fill:#3b3b3b;}.cls-16{fill:#2c2c2c;}.cls-17{fill:#a7a7a7;}.cls-18{fill:#828282;}.cls-19{fill:#9e9e9e;}.cls-20{fill:#858585;}.cls-21{fill:#222;}.cls-22{fill:#636363;}.cls-23{fill:#8f8f8f;}.cls-24{fill:#979797;}.cls-25{fill:#292929;}.cls-26{fill:#202020;}.cls-27{fill:#4e4e4e;}.cls-28{fill:#3f3f3f;}.cls-29{fill:#4f4f4f;}.cls-30{fill:#2a2a2a;}.cls-31{fill:#565656;}.cls-32{fill:#6f6f6f;}.cls-33{fill:#acacac;}.cls-34{fill:#7c7c7c;}.cls-35{fill:#9f9f9f;}.cls-36{fill:#a8a8a8;}.cls-37{fill:#9d9d9d;}.cls-38{fill:#646464;}.cls-39{fill:#868686;}.cls-40{fill:#696969;}.cls-41{fill:#414141;}.cls-42{fill:#595959;}.cls-43{fill:#888;}.cls-44{fill:#626262;}.cls-45{fill:#929292;}.cls-46{fill:#545454;}.cls-47{fill:#5c5c5c;}.cls-48{fill:#717171;}.cls-49{fill:#737373;}.cls-50{fill:#a0a0a0;}</style></defs><g id="Слой_2" data-name="Слой 2"><g id="Слой_1-2" data-name="Слой 1"><path class="cls-1" d="M40,768H0V0H768V768h-4c-4.13-13.24-9.66-25.76-18.54-36.59a87.35,87.35,0,0,1-6.29-8.13,38.18,38.18,0,0,1-4.82-9.37c-1.52-5.14-1.91-10.63-3.43-15.77a51,51,0,0,0-5-10.75c-2.91-5.07-5.65-10.38-9.42-14.77-5.1-5.93-11.06-11.13-16.74-16.56-1.75-1.68-3.54-3.77-5.71-4.51-12.74-4.32-21.89-13.77-31.58-22.24-4.7-4.09-9.34-6.71-15.44-6.93a47.65,47.65,0,0,1-6.45-.43c-6.21-1.08-12.86-.29-18.07-5.49-1.73-1.72-5.23-1.68-7.93-2.4a19.54,19.54,0,0,1-3.75-.87c-5.88-2.93-11.51-6.42-17.56-8.92-9.14-3.77-16.28-9.14-20-18.71-1.13-2.84-3.78-5.42-6.34-7.31-6.61-4.87-13.55-9.28-20.36-13.87-7.93-5.36-15.83-10.77-23.83-16-4.36-2.87-9.37-4.67-10-11.31-.2-2.14-3.67-5.26-6-5.62-3.25-.5-6.82,1.28-10.3,1.85-1.68.28-3.84.69-5.1-.08-15.76-9.62-29.81-21.27-41.15-35.94-2.25-2.9-5.37-6.27-5.47-9.5-.71-23,2.77-45.5,9.46-67.6,2.89-9.54,4-19.62,6.17-29.4,1.1-4.91,2.81-9.69,4.47-15.29,5.06,3.63,8.68,9.08,15.18,5.73.22-1.09.07-2.63.76-3.45,6.88-8.07,9.22-18.06,12.23-27.82,1.6-5.21,4.22-10.12,5.77-15.34,1.73-5.82,3.76-11.83,3.88-17.78.2-10.27-7.91-15.77-18-13.47-1.7.39-3.6-.12-5.61-.23l3.19-11.87q2.91-9.18,5.81-18.38a5.23,5.23,0,0,0,1,.11c1.61-.37,3.2-.88,4.82-1.09,9.93-1.33,10-1.31,10.86-10.91.12-1.35-.76-2.78-.85-4.19-.14-2.38-1-5.66.18-7,3-3.4,4.33-6.86,5.49-11.29,1.83-7,3.27-13.56.56-20.49.29-2.93.77-5.86.84-8.79.2-8.41,4.28-16.79.27-25.24A30.07,30.07,0,0,0,504.93,163q-3.33-7.07-6.65-14.15c-.08-1-.15-1.92-.23-2.89l-.9-11.09c-1.72-5-1.86-10.76-7-14.05L487.9,117c-.33-1.34-.65-2.68-1-4-1-9.44-6.86-15.17-14.15-13.88l-13.65-5.4-5.89-1.85c-5.53-4.9-11-9.89-16.62-14.66-1.58-1.33-3.73-2-5.62-3-4.09-1.68-8.08-3.69-12.29-5-7-2.12-14.11-4.8-21.31-5.36-9.26-.73-18.67.44-28,.69A37.93,37.93,0,0,1,364,64V59c-2.34-8.85-9.17-12-15.24-6.58-2.76,2.46-5.29,3-8.55,2.14s-6.39-1.63-9.54-2.57c-5.22-1.55-10.57-4.92-15.58-4.46-9.71.9-19.52,2.94-28.07,8.41l-1.95.32c-2.53-.75-6.36-2.85-7.29-1.94-1.78,1.71-1.89,5.14-2.69,7.86l-.93.88c-2.93-.48-5.85-1.1-8.8-1.42-4.66-.52-11.23,3.09-12.11,5.32C248.11,69.68,244,71.85,240,74c-2.87,5.33-9.42,8.24-9.94,15.12A108.1,108.1,0,0,0,208,119l-3,6.81c-1.26,1.76-2.51,3.52-3.77,5.27-5.9,2.84-6.29,3.8-4.39,10.8-5.39,1.93-5.81,3.16-3.85,11.11q-4.5,10-9,20c-2.26,8.54-3.08,17,1.91,25,.34,1,.68,2,1,3l1,1c.93,5,1.82,10.05,2.82,15.06,1.62,8,3.31,16,5,24l3,6.91c-.12,1.75-.23,3.5-.32,4.84l5.48,3.19.26,5.48,2.61.63c.44,2.35.88,4.69,1.45,7.77H212c.79,1.81,1.57,3.62,2.61,6l7.39-1,4.9,8.24c1.09,4.33,2.19,8.65,3.55,14-1.72-.08-3.41.25-4.76-.29-5.68-2.25-10.38-1.61-13.72,3.11-5.59,7.9-7.54,16.26-3.24,25.78,5.32,11.78,10.06,23.84,14.69,35.92,3.75,9.79,7.33,19.41,20.74,18.49.68,3.43,1.42,6.49,1.88,9.6,2.58,17.3,5.26,34.73,15.34,49.52,4.81,7.05,6.63,14.52,7.55,22.53,1.08,9.42,2.48,18.85,2.69,28.3.25,11.11-.46,22.25-1.08,33.35-.36,6.31-4.19,10.56-9.42,13.86-7.78,4.92-15.65,9.75-23.06,15.2a44,44,0,0,1-22,8.29c-6.23.66-10.76,4.25-15.13,8.06a76.84,76.84,0,0,0-8.91,9.22c-7.12,8.66-16.3,14.48-26.05,19.55S146.16,608,136.18,612.9c-28.73,14.22-52.81,33.46-67.43,62.79-4.23,8.48-9.26,16.83-11.75,25.85-5.66,20.5-9.94,41.39-14.87,62.09A21.77,21.77,0,0,1,40,768Z"/><path class="cls-2" d="M195.74,241.16c-1.67-8-3.36-16-5-24-1-5-1.89-10-2.82-15.06,1.29-3.19,3.1-6.28,3.76-9.6.93-4.71,1-9.59,1.46-14.4l4.59-22.12,1.3-1.92c1.6-1.83,3.75-3.41,4.71-5.53,4.48-9.94,8.81-20,12.8-30.1,1-2.49.51-5.56.7-8.36l10.83-13.66,9.82-8.48,11-9L255,71.06c5.33-5.23,12.69-5.55,19.17-8l.93-.88,3-.1c6.09,0,12.18,0,18.27.07,8.09.14,16.19.38,24.28.6,2,0,4.06-.17,5.93.34,11.79,3.23,23.64,2.36,35.52.8L364,64a37.93,37.93,0,0,0,5.37.62c9.35-.25,18.76-1.42,28-.69,7.2.56,14.29,3.24,21.31,5.36,4.21,1.27,8.2,3.28,12.29,5a30.35,30.35,0,0,0,2.58,3.62c5.63,6,10.75,12.65,19.66,14l5.89,1.85L472,105l0,0a27.36,27.36,0,0,1,4.93,17c.67,2.12.81,4.67,2.11,6.26,5.82,7.07,12,13.87,18,20.76a25.14,25.14,0,0,1,3.32,16.66c-.78,4.88-2.12,9.71-2.47,14.61-.26,3.56.69,7.2,1.09,10.81,1.76,6.64,2.78,13.29,0,19.93L497,212.93c-.69,2.72-1.32,5.45-2.09,8.15-1.08,3.79-1.58,8-3.55,11.24-6.65,11.1-7.63,22.76-5.14,35.12.43,2.16-.08,4.59-.5,6.83-1.06,5.68-2.32,11.32-3.51,17L479,303.11c2,.11,3.91.62,5.61.23,10.09-2.3,18.2,3.2,18,13.47-.12,5.95-2.15,12-3.88,17.78-1.55,5.22-4.17,10.13-5.77,15.34-3,9.76-5.35,19.75-12.23,27.82-.69.82-.54,2.36-.76,3.45-6.5,3.35-10.12-2.1-15.18-5.73-1.66,5.6-3.37,10.38-4.47,15.29-2.18,9.78-3.28,19.86-6.17,29.4-6.69,22.1-10.17,44.58-9.46,67.6.1,3.23,3.22,6.6,5.47,9.5,11.34,14.67,25.39,26.32,41.15,35.94,1.26.77,3.42.36,5.1.08,3.48-.57,7.05-2.35,10.3-1.85,2.33.36,5.8,3.48,6,5.62.63,6.64,5.64,8.44,10,11.31,8,5.25,15.9,10.66,23.83,16,6.81,4.59,13.75,9,20.36,13.87,2.56,1.89,5.21,4.47,6.34,7.31,3.77,9.57,10.91,14.94,20,18.71,6,2.5,11.68,6,17.56,8.92a19.54,19.54,0,0,0,3.75.87c2.7.72,6.2.68,7.93,2.4,5.21,5.2,11.86,4.41,18.07,5.49a47.65,47.65,0,0,0,6.45.43c6.1.22,10.74,2.84,15.44,6.93,9.69,8.47,18.84,17.92,31.58,22.24,2.17.74,4,2.83,5.71,4.51,5.68,5.43,11.64,10.63,16.74,16.56,3.77,4.39,6.51,9.7,9.42,14.77a51,51,0,0,1,5,10.75c1.52,5.14,1.91,10.63,3.43,15.77a38.18,38.18,0,0,0,4.82,9.37,87.35,87.35,0,0,0,6.29,8.13c8.88,10.83,14.41,23.35,18.54,36.59H40a21.77,21.77,0,0,0,2.13-4.37C47.06,742.93,51.34,722,57,701.54c2.49-9,7.52-17.37,11.75-25.85,14.62-29.33,38.7-48.57,67.43-62.79q15-7.42,29.8-15.12c9.75-5.07,18.93-10.89,26.05-19.55a76.84,76.84,0,0,1,8.91-9.22c4.37-3.81,8.9-7.4,15.13-8.06a44,44,0,0,0,22-8.29c7.41-5.45,15.28-10.28,23.06-15.2,5.23-3.3,9.06-7.55,9.42-13.86.62-11.1,1.33-22.24,1.08-33.35-.21-9.45-1.61-18.88-2.69-28.3-.92-8-2.74-15.48-7.55-22.53C251.28,424.63,248.6,407.2,246,389.9c-.46-3.11-1.2-6.17-1.88-9.6-13.41.92-17-8.7-20.74-18.49-4.63-12.08-9.37-24.14-14.69-35.92-4.3-9.52-2.35-17.88,3.24-25.78,3.34-4.72,8-5.36,13.72-3.11,1.35.54,3,.21,4.76.29-1.36-5.38-2.46-9.7-3.55-14l3.33-1.15c-1.83-4.88-2.48-10.16-7.77-13.35-.6,1.46-1,2.34-1.34,3.23l-5.85-4.13L213.06,262c-.08-.57-.15-1.14-.22-1.71,2.91-6.73-1.31-10.56-5.81-14.27l-2-5c-.78-4.44-2.9-6.72-8.07-4.76V241Z"/><path class="cls-3" d="M362.12,63.89c-11.88,1.56-23.73,2.43-35.52-.8-1.87-.51-3.94-.29-5.93-.34-8.09-.22-16.19-.46-24.28-.6-6.09-.1-12.18,0-18.27-.07l6.95-5.82,1.95-.32c.66.34,1.32.68,2,1,3.6.32,7.19.88,10.79.91,6.25,0,12.51-.08,18.74-.45,1.66-.09,3.24-1.32,3.88-1.6l6.64,1c4.18,3.52,9,3.22,13.92,2.32,4,1.42,8,3.1,12.09,4.13,2.12.54,4.54-.07,6.82-.16A7.84,7.84,0,0,1,362.12,63.89Z"/><path class="cls-4" d="M289,57c-.67-.33-1.33-.67-2-1,8.55-5.47,18.36-7.51,28.07-8.41,5-.46,10.36,2.91,15.58,4.46,3.15.94,6.36,1.71,9.54,2.57s5.79.32,8.55-2.14C354.83,47,361.66,50.15,364,59c-5.15-5.74-7.05-6.09-11-2l-4-.1-6,2.21c-4.92.9-9.74,1.2-13.92-2.32-1.82-1.16-3.5-2.83-5.5-3.41C311.6,49.85,300.36,54.1,289,57Z"/><path class="cls-4" d="M510,218c2.71,6.93,1.27,13.47-.56,20.49-1.16,4.43-2.5,7.89-5.49,11.29-1.2,1.35-.32,4.63-.18,7,.09,1.41,1,2.84.85,4.19-.87,9.6-.93,9.58-10.86,10.91-1.62.21-3.21.72-4.82,1.09l2.13-6L493,265.9c6.35-.95,7.06-2,6.93-9.88.07-3,.14-6,.2-8.95l.58-1.17c.12-.3.26-.59.4-.89.82-.55,2.18-1,2.37-1.69,1.78-6.79,3.35-13.64,5-20.45C508.9,221.22,509.48,219.61,510,218Z"/><path class="cls-5" d="M510,218c-.51,1.62-1.09,3.23-1.5,4.88-1.67,6.81-3.24,13.66-5,20.45-.19.72-1.55,1.14-2.37,1.69,1.29-4.9,3.31-9.74,3.73-14.71.84-9.72.79-19.52,1.11-29.29q2.13-6.42,4.25-12.83c.3-1.41.61-2.82.91-4.22,4,8.45-.07,16.83-.27,25.24C510.76,212.13,510.28,215.06,510,218Z"/><path class="cls-6" d="M186.94,201c-.33-1-.67-2-1-3a38.34,38.34,0,0,1,.28-17.91c.53-2-1.39-4.7-2.19-7.07q4.48-10,9-20c.66-1.67,1.33-3.34,2-5l.09,4.14c-.38,2.46-.93,4.91-1.12,7.38-.38,5,1.08,10.6-4.75,13,.86,2.32,1.46,3.94,2.07,5.57a42.37,42.37,0,0,0-.83,4.85c-.1,1.44.51,3,.19,4.35C189.55,191.87,188.2,196.43,186.94,201Z"/><path class="cls-7" d="M482.16,291.24c1.19-5.65,2.45-11.29,3.51-17,.42-2.24.93-4.67.5-6.83-2.49-12.36-1.51-24,5.14-35.12,2-3.28,2.47-7.45,3.55-11.24.77-2.7,1.4-5.43,2.09-8.15l2.94,1.26c-.74,2.12-1.52,4.23-2.19,6.37-1.41,4.51-2,9.44-4.32,13.42s-3.78,7.58-3.33,12L488,243.36v29.5Q485.08,282.06,482.16,291.24Z"/><path class="cls-8" d="M499,191.06c-.4-3.61-1.35-7.25-1.09-10.81.35-4.9,1.69-9.73,2.47-14.61A25.14,25.14,0,0,0,497.05,149l1.23-.1q3.33,7.08,6.65,14.15c.34,1.66.69,3.33,1,5q-1.45,11-2.93,22Z"/><path class="cls-9" d="M498.28,148.88l-1.23.1c-6-6.89-12.19-13.69-18-20.76-1.3-1.59-1.44-4.14-2.11-6.26,3.8-5.17,2.81-10-.9-14.77L480.1,109c.29,1,.57,2,.85,3l3,7-2.84,3.42L492,137l6,9C498.13,147,498.2,147.92,498.28,148.88Z"/><path class="cls-10" d="M488,272.86v-29.5l2.08,2.66c.3,1.81.6,3.63.91,5.44l1.05,0c.41-2.26.81-4.52,1.32-7.33l3.5,2.79L496,256c-.9,1.84-1.85,3.66-2.68,5.53s-1.5,3.68-2.25,5.52l-2.13,6A5.23,5.23,0,0,1,488,272.86Z"/><path class="cls-11" d="M228.09,96.37,217.26,110c-.78,2-1.55,4-2.33,6.07L208,119a108.1,108.1,0,0,1,22-29.88l6-4.88L237,86l.14.28Z"/><path class="cls-12" d="M274.16,63.06c-6.48,2.45-13.84,2.77-19.17,8l-2.82,1L240,74c4.06-2.16,8.13-4.33,13.27-7.05.88-2.23,7.45-5.84,12.11-5.32C268.31,62,271.23,62.58,274.16,63.06Z"/><path class="cls-13" d="M498.05,146l-6-9L484,119l-3-7,6.95,5,2.25,3.81a14.93,14.93,0,0,0,7,14.05Z"/><path class="cls-14" d="M480.1,109,476,107.19,472,105l0,0q.36-2.92.73-5.84c7.29-1.29,13.13,4.44,14.15,13.88Z"/><path class="cls-15" d="M208,119l6.94-2.91L204,139l-.78-6.86c.59-2.11,1.19-4.22,1.78-6.34Z"/><path class="cls-16" d="M240,74l12.19-1.94L236.06,84.25l-6,4.88C230.56,82.25,237.11,79.34,240,74Z"/><path class="cls-17" d="M221.1,272c.37-.89.74-1.77,1.34-3.23,5.29,3.19,5.94,8.47,7.77,13.35l-3.33,1.15L222,275Z"/><path class="cls-18" d="M203.94,256.1l-5.48-3.19c.09-1.34.2-3.09.32-4.84l5.51-2.84,2.65,1.8c.66,2,1.33,4,2,6Z"/><path class="cls-19" d="M453.23,91.89c-8.91-1.35-14-8-19.66-14A30.35,30.35,0,0,1,431,74.27c1.89,1,4,1.63,5.62,3C442.25,82,447.7,87,453.23,91.89Z"/><path class="cls-20" d="M186.94,201c1.26-4.59,2.61-9.15,3.7-13.77.32-1.36-.29-2.91-.19-4.35a44.64,44.64,0,0,1,.82-4.85h1.89c-.44,4.81-.53,9.69-1.46,14.4-.66,3.32-2.47,6.41-3.76,9.6Z"/><path class="cls-21" d="M184,173c.8,2.37,2.72,5,2.19,7.07a38.34,38.34,0,0,0-.28,17.91C180.94,190,181.76,181.55,184,173Z"/><path class="cls-22" d="M203.94,256.1l5-3.05,3.9,7.22c.07.57.14,1.14.22,1.71l-6.25.24-2.61-.64Z"/><path class="cls-23" d="M206.94,247l-2.65-1.8-5.51,2.84-3-6.91L197,241H205c.66,1.68,1.32,3.35,2,5Z"/><path class="cls-24" d="M472.77,99.14q-.37,2.91-.73,5.84L459.12,93.74Z"/><path class="cls-25" d="M221.1,272l.88,3-7.39,1c-1-2.4-1.82-4.21-2.61-6l3.27-2.12Z"/><path class="cls-26" d="M285.07,56.26l-6.95,5.82-3,.1c.8-2.72.91-6.15,2.69-7.86C278.71,53.41,282.54,55.51,285.07,56.26Z"/><path class="cls-27" d="M506,168c-.34-1.66-.69-3.33-1-5A30.07,30.07,0,0,1,511.1,184c-.3,1.4-.61,2.81-.91,4.22-.69-1.07-1.39-2.13-2.08-3.19Q507,176.52,506,168Z"/><path class="cls-28" d="M215.25,267.86,212,270h-3.72c-.57-3.08-1-5.42-1.45-7.77l6.25-.23Z"/><path class="cls-29" d="M497.15,134.9a14.93,14.93,0,0,1-7-14.05C495.29,124.14,495.43,129.91,497.15,134.9Z"/><path class="cls-30" d="M353,57c4-4.07,5.86-3.72,11,2v5l-1.88-.13a7.84,7.84,0,0,0-.23-.83c0-1,.08-2.05.11-3.08Z"/><path class="cls-26" d="M195,148c-.66,1.66-1.33,3.33-2,5-2-7.95-1.54-9.18,3.85-11.11l.23.16C196.38,144,195.69,146,195,148Z"/><path class="cls-26" d="M196.85,141.89c-1.9-7-1.51-8,4.39-10.8-.79,2.24-1.57,4.48-2.36,6.71l-1.8,4.25Z"/><path class="cls-31" d="M480.1,109l6.82,4c.33,1.34.65,2.68,1,4L481,112C480.67,111,480.39,110,480.1,109Z"/><path class="cls-32" d="M198.88,137.8c.79-2.23,1.57-4.47,2.36-6.71,1.26-1.75,2.51-3.51,3.77-5.27-.59,2.12-1.19,4.23-1.78,6.34-1.1,2.61-2.21,5.22-3.31,7.82Z"/><path class="cls-19" d="M204,139l10.92-22.92c.78-2,1.55-4,2.33-6.07-.19,2.8.28,5.87-.7,8.36-4,10.14-8.32,20.16-12.8,30.1-1,2.12-3.11,3.7-4.71,5.53-.06-.7-.11-1.4-.16-2.09Q201.44,145.48,204,139Z"/><path class="cls-33" d="M499,191.06l4-1.08c.38,2.65.75,5.29,1.13,7.94q-.17,9-.32,18l-1.44-5.09L499,211C501.77,204.35,500.75,197.7,499,191.06Z"/><path class="cls-34" d="M193.16,178.06h-1.89l-2.06-5.57c5.83-2.36,4.37-7.95,4.75-13,.19-2.47.74-4.92,1.12-7.38l2.67,3.8Z"/><path class="cls-19" d="M236.06,84.25l16.11-12.18,2.82-1-6.12,7.86L237,86Z"/><path class="cls-35" d="M472,105l4,2.19c3.71,4.72,4.7,9.6.9,14.77A27.36,27.36,0,0,0,472,105Z"/><path class="cls-36" d="M206.94,247l.09-1c4.5,3.71,8.72,7.54,5.81,14.27l-3.9-7.22C208.27,251,207.6,249,206.94,247Z"/><path class="cls-37" d="M205,241H197v-4.77C202.14,234.25,204.26,236.53,205,241Z"/><path class="cls-38" d="M197.75,155.94l-2.67-3.8L195,148c.7-2,1.39-4,2.09-5.95l1.8-4.25c.35.73.69,1.46,1,2.18a65.6,65.6,0,0,0-2.26,8c-.19,1.21.78,2.61,1.23,3.93.05.69.1,1.39.16,2.09Z"/><path class="cls-39" d="M237,86l11.9-7-11,9c-.27-.55-.54-1.09-.8-1.64Z"/><path class="cls-40" d="M237.11,86.25c.26.55.53,1.09.8,1.64l-9.82,8.48Z"/><path class="cls-8" d="M499,211l3.39-.15,1.44,5.09c-.4.41-1.06,1.22-1.15,1.16A30.06,30.06,0,0,1,500,215c0-.27-.09-.53-.13-.8L497,212.93Z"/><path class="cls-41" d="M289,57c11.35-2.85,22.59-7.1,34.55-3.59,2,.58,3.68,2.25,5.5,3.41l-6.64-1c-.64.28-2.22,1.51-3.88,1.6-6.23.37-12.49.5-18.74.45C296.2,57.83,292.61,57.27,289,57Z"/><path class="cls-42" d="M362,60c0,1-.07,2.05-.11,3.08-2.28.09-4.7.7-6.82.16-4.11-1-8.07-2.71-12.09-4.13l6-2.21C352.43,61.75,357.56,59.45,362,60Z"/><path class="cls-28" d="M362,60c-4.44-.53-9.57,1.77-13-3.1l4,.1Z"/><path class="cls-43" d="M500,215a30.06,30.06,0,0,0,2.67,2.1c.09.06.75-.75,1.15-1.16q.17-9,.32-18l.79.12,1,3c-.32,9.77-.27,19.57-1.11,29.29-.42,5-2.44,9.81-3.73,14.71-.14.3-.28.59-.4.89.06-2.66.13-5.33.19-8,.35-3.61.75-7.23,1-10.86,0-.31-1.2-.69-1.84-1C500,222.33,500,218.66,500,215Z"/><path class="cls-44" d="M491.06,267c.75-1.84,1.44-3.7,2.25-5.52s1.78-3.69,2.68-5.53q2.07-4.44,4.13-8.9c-.06,3-.13,6-.2,8.95L493,265.9Z"/><path class="cls-45" d="M500.12,247.07q-2.06,4.45-4.13,8.9.42-4.54.85-9.09.66-4.49,1.34-8.95l2.71,0c-.06,2.67-.13,5.34-.19,8C500.51,246.29,500.32,246.68,500.12,247.07Z"/><path class="cls-46" d="M493,265.9l6.93-9.88C500.05,263.94,499.34,265,493,265.9Z"/><path class="cls-47" d="M505.94,201l-1-3c.92-4.38-1.36-9.54,3.16-13,.69,1.06,1.39,2.12,2.08,3.19Q508.07,194.58,505.94,201Z"/><path class="cls-48" d="M498.18,237.93q-.68,4.47-1.34,8.95l-3.51-2.79c-.51,2.81-.91,5.07-1.32,7.33l-1.05,0c-.31-1.81-.61-3.63-.91-5.44-.45-4.46,1.08-8.12,3.33-12s2.91-8.91,4.32-13.42c.67-2.14,1.45-4.25,2.19-6.37,0,.27.09.53.13.8,0,3.67,0,7.34,0,11Z"/><path class="cls-49" d="M508.11,185c-4.52,3.51-2.24,8.67-3.16,13l-.79-.12c-.38-2.65-.75-5.29-1.13-7.94q1.47-11,2.93-22Q507,176.51,508.11,185Z"/><path class="cls-18" d="M484,119,492,137l-10.91-14.54Z"/><path class="cls-16" d="M198.89,151.93c-.45-1.32-1.42-2.72-1.23-3.93a65.6,65.6,0,0,1,2.26-8c1.1-2.6,2.21-5.21,3.31-7.82L204,139Q201.45,145.49,198.89,151.93Z"/><path class="cls-50" d="M498.18,237.93,500,226c.64.35,1.86.73,1.84,1-.21,3.63-.61,7.25-1,10.86Z"/></g></g></svg>